{
    "asset" : {
        "generator" : "Khronos glTF Blender I/O v1.5.17",
        "version" : "2.0"
    },
    "scene" : 0,
    "scenes" : [
        {
            "name" : "Scene",
            "nodes" : [
                0,
                1,
                2
            ]
        }
    ],
    "nodes" : [
        {
            "mesh" : 0,
            "name" : "Cube",
            "scale" : [
                0.5393640995025635,
                0.711585521697998,
                0.1230170950293541
            ],
            "translation" : [
                0,
                0,
                0.0519082210958004
            ]
        },
        {
            "mesh" : 1,
            "name" : "Cube.001",
            "rotation" : [
                0,
                0,
                -0.20165713131427765,
                0.9794561862945557
            ],
            "scale" : [
                0.5393640995025635,
                0.7115855813026428,
                0.1095263883471489
            ],
            "translation" : [
                0,
                0,
                0.28517213463783264
            ]
        },
        {
            "mesh" : 2,
            "name" : "Cube.002",
            "rotation" : [
                0,
                0,
                -0.9971650838851929,
                -0.07524469494819641
            ],
            "scale" : [
                0.5393640995025635,
                0.7115855813026428,
                0.1095263883471489
            ],
            "translation" : [
                0,
                0,
                0.5041508078575134
            ]
        }
    ],
    "materials" : [
        {
            "doubleSided" : true,
            "name" : "Material.001",
            "pbrMetallicRoughness" : {
                "baseColorFactor" : [
                    0.6500052213668823,
                    0.004224827978760004,
                    0.010949329473078251,
                    1
                ],
                "metallicFactor" : 0,
                "roughnessFactor" : 0.4000000059604645
            }
        },
        {
            "doubleSided" : true,
            "name" : "Material.002",
            "pbrMetallicRoughness" : {
                "baseColorFactor" : [
                    0.800000011920929,
                    0.800000011920929,
                    0.800000011920929,
                    1
                ],
                "metallicFactor" : 0,
                "roughnessFactor" : 0.5
            }
        },
        {
            "doubleSided" : true,
            "name" : "Material.003",
            "pbrMetallicRoughness" : {
                "baseColorFactor" : [
                    0,
                    0.3505554497241974,
                    0.005113956518471241,
                    1
                ],
                "metallicFactor" : 0,
                "roughnessFactor" : 0.5
            }
        },
        {
            "doubleSided" : true,
            "name" : "Material.004",
            "pbrMetallicRoughness" : {
                "baseColorFactor" : [
                    0.017134306952357292,
                    0.19473473727703094,
                    0.8000000715255737,
                    1
                ],
                "metallicFactor" : 0,
                "roughnessFactor" : 0.5
            }
        }
    ],
    "meshes" : [
        {
            "name" : "Cube",
            "primitives" : [
                {
                    "attributes" : {
                        "POSITION" : 0,
                        "NORMAL" : 1,
                        "TEXCOORD_0" : 2
                    },
                    "indices" : 3,
                    "material" : 0
                },
                {
                    "attributes" : {
                        "POSITION" : 4,
                        "NORMAL" : 5,
                        "TEXCOORD_0" : 6
                    },
                    "indices" : 7,
                    "material" : 1
                }
            ]
        },
        {
            "name" : "Cube.001",
            "primitives" : [
                {
                    "attributes" : {
                        "POSITION" : 8,
                        "NORMAL" : 9,
                        "TEXCOORD_0" : 10
                    },
                    "indices" : 7,
                    "material" : 1
                },
                {
                    "attributes" : {
                        "POSITION" : 11,
                        "NORMAL" : 12,
                        "TEXCOORD_0" : 13
                    },
                    "indices" : 3,
                    "material" : 2
                }
            ]
        },
        {
            "name" : "Cube.002",
            "primitives" : [
                {
                    "attributes" : {
                        "POSITION" : 14,
                        "NORMAL" : 15,
                        "TEXCOORD_0" : 16
                    },
                    "indices" : 7,
                    "material" : 1
                },
                {
                    "attributes" : {
                        "POSITION" : 17,
                        "NORMAL" : 18,
                        "TEXCOORD_0" : 19
                    },
                    "indices" : 3,
                    "material" : 3
                }
            ]
        }
    ],
    "accessors" : [
        {
            "bufferView" : 0,
            "componentType" : 5126,
            "count" : 68,
            "max" : [
                1.0313076972961426,
                1,
                1
            ],
            "min" : [
                -1,
                -1,
                -1
            ],
            "type" : "VEC3"
        },
        {
            "bufferView" : 1,
            "componentType" : 5126,
            "count" : 68,
            "type" : "VEC3"
        },
        {
            "bufferView" : 2,
            "componentType" : 5126,
            "count" : 68,
            "type" : "VEC2"
        },
        {
            "bufferView" : 3,
            "componentType" : 5123,
            "count" : 102,
            "type" : "SCALAR"
        },
        {
            "bufferView" : 4,
            "componentType" : 5126,
            "count" : 24,
            "max" : [
                0.9672943353652954,
                0.9591638445854187,
                0.7971799373626709
            ],
            "min" : [
                -0.9602466821670532,
                -0.9591638445854187,
                -0.7971799373626709
            ],
            "type" : "VEC3"
        },
        {
            "bufferView" : 5,
            "componentType" : 5126,
            "count" : 24,
            "type" : "VEC3"
        },
        {
            "bufferView" : 6,
            "componentType" : 5126,
            "count" : 24,
            "type" : "VEC2"
        },
        {
            "bufferView" : 7,
            "componentType" : 5123,
            "count" : 54,
            "type" : "SCALAR"
        },
        {
            "bufferView" : 8,
            "componentType" : 5126,
            "count" : 24,
            "max" : [
                0.9672943353652954,
                0.9591638445854187,
                0.7971799373626709
            ],
            "min" : [
                -0.9602466821670532,
                -0.9591638445854187,
                -0.7971799373626709
            ],
            "type" : "VEC3"
        },
        {
            "bufferView" : 9,
            "componentType" : 5126,
            "count" : 24,
            "type" : "VEC3"
        },
        {
            "bufferView" : 10,
            "componentType" : 5126,
            "count" : 24,
            "type" : "VEC2"
        },
        {
            "bufferView" : 11,
            "componentType" : 5126,
            "count" : 68,
            "max" : [
                1.0313076972961426,
                1,
                1
            ],
            "min" : [
                -1,
                -1,
                -1
            ],
            "type" : "VEC3"
        },
        {
            "bufferView" : 12,
            "componentType" : 5126,
            "count" : 68,
            "type" : "VEC3"
        },
        {
            "bufferView" : 13,
            "componentType" : 5126,
            "count" : 68,
            "type" : "VEC2"
        },
        {
            "bufferView" : 14,
            "componentType" : 5126,
            "count" : 24,
            "max" : [
                0.9672943353652954,
                0.9591638445854187,
                0.7971799373626709
            ],
            "min" : [
                -0.9602466821670532,
                -0.9591638445854187,
                -0.7971799373626709
            ],
            "type" : "VEC3"
        },
        {
            "bufferView" : 15,
            "componentType" : 5126,
            "count" : 24,
            "type" : "VEC3"
        },
        {
            "bufferView" : 16,
            "componentType" : 5126,
            "count" : 24,
            "type" : "VEC2"
        },
        {
            "bufferView" : 17,
            "componentType" : 5126,
            "count" : 68,
            "max" : [
                1.0313076972961426,
                1,
                1
            ],
            "min" : [
                -1,
                -1,
                -1
            ],
            "type" : "VEC3"
        },
        {
            "bufferView" : 18,
            "componentType" : 5126,
            "count" : 68,
            "type" : "VEC3"
        },
        {
            "bufferView" : 19,
            "componentType" : 5126,
            "count" : 68,
            "type" : "VEC2"
        }
    ],
    "bufferViews" : [
        {
            "buffer" : 0,
            "byteLength" : 816,
            "byteOffset" : 0
        },
        {
            "buffer" : 0,
            "byteLength" : 816,
            "byteOffset" : 816
        },
        {
            "buffer" : 0,
            "byteLength" : 544,
            "byteOffset" : 1632
        },
        {
            "buffer" : 0,
            "byteLength" : 204,
            "byteOffset" : 2176
        },
        {
            "buffer" : 0,
            "byteLength" : 288,
            "byteOffset" : 2380
        },
        {
            "buffer" : 0,
            "byteLength" : 288,
            "byteOffset" : 2668
        },
        {
            "buffer" : 0,
            "byteLength" : 192,
            "byteOffset" : 2956
        },
        {
            "buffer" : 0,
            "byteLength" : 108,
            "byteOffset" : 3148
        },
        {
            "buffer" : 0,
            "byteLength" : 288,
            "byteOffset" : 3256
        },
        {
            "buffer" : 0,
            "byteLength" : 288,
            "byteOffset" : 3544
        },
        {
            "buffer" : 0,
            "byteLength" : 192,
            "byteOffset" : 3832
        },
        {
            "buffer" : 0,
            "byteLength" : 816,
            "byteOffset" : 4024
        },
        {
            "buffer" : 0,
            "byteLength" : 816,
            "byteOffset" : 4840
        },
        {
            "buffer" : 0,
            "byteLength" : 544,
            "byteOffset" : 5656
        },
        {
            "buffer" : 0,
            "byteLength" : 288,
            "byteOffset" : 6200
        },
        {
            "buffer" : 0,
            "byteLength" : 288,
            "byteOffset" : 6488
        },
        {
            "buffer" : 0,
            "byteLength" : 192,
            "byteOffset" : 6776
        },
        {
            "buffer" : 0,
            "byteLength" : 816,
            "byteOffset" : 6968
        },
        {
            "buffer" : 0,
            "byteLength" : 816,
            "byteOffset" : 7784
        },
        {
            "buffer" : 0,
            "byteLength" : 544,
            "byteOffset" : 8600
        }
    ],
    "buffers" : [
        {
            "byteLength" : 9144,
            "uri" : "data:application/octet-stream;base64,"
        }
    ]
}
